<svg width="155" height="155" viewBox="0 0 155 155" xmlns="http://www.w3.org/2000/svg" xmlns:xlink="http://www.w3.org/1999/xlink"><title>Page 1</title><defs><path id="a" d="M0 78.429V.929h155v155H0v-77.5z"/></defs><g fill="none" fill-rule="evenodd"><g transform="translate(0 -.929)"><mask id="b" fill="#fff"><use xlink:href="#a"/></mask><path d="M155 78.429c0 42.802-34.698 77.5-77.5 77.5S0 121.23 0 78.429C0 35.626 34.698.929 77.5.929s77.5 34.697 77.5 77.5" fill="#F38181" mask="url(#b)"/></g><path fill="#F67656" d="M116.215 110.454h2.576V63.306h-2.576z"/><path fill="#E66847" d="M118.791 110.454h2.58V63.306h-2.58z"/><path fill="#D65A38" d="M121.371 110.454h2.578V63.306h-2.578z"/><path fill="#FFF" d="M123.952 63.306l-2.585-4.468h-2.571l-2.578 4.468z"/><path fill="#E6E5E5" d="M123.952 63.306h-2.581l-.86-4.469.856.001z"/><path fill="#3F4A5A" d="M121.367 58.839l-1.288-2.23-1.283 2.229z"/><path fill="#E6E5E5" d="M121.369 113.033h2.578v-2.578h-2.578z"/><path fill="#FFF" d="M121.37 113.03l-5.155.003v-2.578h5.156z"/><path d="M123.947 113.632v-.6h-2.58v.6a3.86 3.86 0 0 1-1.128 2.733 3.82 3.82 0 0 1-1.45.909 3.845 3.845 0 0 0 4.029-.91 3.852 3.852 0 0 0 1.129-2.732" fill="#262E37"/><path d="M121.367 113.632v-.6h-5.157v.6a3.86 3.86 0 0 0 2.58 3.641 3.82 3.82 0 0 0 1.449-.908 3.857 3.857 0 0 0 1.128-2.733M46.952 117.5a2.99 2.99 0 0 1-2.121-.88 2.99 2.99 0 0 1-.88-2.12V65.887h67.098V114.5a2.99 2.99 0 0 1-.88 2.12 2.991 2.991 0 0 1-2.12.88H46.952z" fill="#3F4A5A"/><path d="M90.403 80.37c0 .55-.45 1-1 1H81.08c-.55 0-1-.45-1-1v-8.322c0-.55.45-1 1-1h8.322c.55 0 1 .45 1 1v8.323z" fill="#F67656"/><path d="M59.436 95.854c0 .55-.45 1-1 1h-8.323c-.55 0-1-.45-1-1v-8.323c0-.549.45-1 1-1h8.323c.55 0 1 .451 1 1v8.323zm15.484 0c0 .55-.45 1-1 1h-8.323c-.55 0-1-.45-1-1v-8.323c0-.549.45-1 1-1h8.322c.55 0 1 .451 1 1v8.323zm-15.484 15.484c0 .55-.45 1-1 1h-8.323c-.55 0-1-.45-1-1v-8.322c0-.55.45-1 1-1h8.323c.55 0 1 .45 1 1v8.322zm15.484 0c0 .55-.45 1-1 1h-8.323c-.55 0-1-.45-1-1v-8.322c0-.55.45-1 1-1h8.322c.55 0 1 .45 1 1v8.322zm30.967-30.968c0 .55-.45 1-1 1h-8.322c-.55 0-1-.45-1-1v-8.322c0-.55.45-1 1-1h8.322c.55 0 1 .45 1 1v8.323zM90.403 95.854c0 .55-.45 1-1 1H81.08c-.55 0-1-.45-1-1v-8.323c0-.549.45-1 1-1h8.322c.55 0 1 .451 1 1v8.323zm15.484 0c0 .55-.45 1-1 1h-8.322c-.55 0-1-.45-1-1v-8.323c0-.549.45-1 1-1h8.322c.55 0 1 .451 1 1v8.323zm-15.484 15.484c0 .55-.45 1-1 1H81.08c-.55 0-1-.45-1-1v-8.322c0-.55.45-1 1-1h8.322c.55 0 1 .45 1 1v8.322zm15.484 0c0 .55-.45 1-1 1h-8.322c-.55 0-1-.45-1-1v-8.322c0-.55.45-1 1-1h8.322c.55 0 1 .45 1 1v8.322zM43.951 65.886h67.097v-2.58H43.951z" fill="#FFF"/><path d="M43.952 63.306V40.5c0-.767.293-1.536.879-2.12a2.99 2.99 0 0 1 2.12-.88h61.098c.767 0 1.535.293 2.12.88a2.99 2.99 0 0 1 .88 2.12v22.807H43.952z" fill="#3F4A5A"/><path d="M105.887 57.144c0 .55-.45 1-1 1H50.113c-.55 0-1-.45-1-1V43.66c0-.549.45-1 1-1h54.774c.55 0 1 .451 1 1v13.484z" fill="#9DE8F7"/><path fill="#262E37" d="M49.112 80.08h25.807v-7.742H49.112z"/><path fill="#333C49" d="M50.403 78.79H73.63v-5.161H50.403z"/><path fill="#262E37" d="M65.458 78.79h1.29v-5.161h-1.29zm-8.173 0h1.29v-5.161h-1.29z"/></g></svg>