<svg width="263" height="236" viewBox="0 0 263 236" xmlns="http://www.w3.org/2000/svg" xmlns:xlink="http://www.w3.org/1999/xlink"><title>Page 1</title><defs><linearGradient x1="50%" y1="0%" x2="50%" y2="100%" id="a"><stop stop-color="#F8F8F8" offset="0%"/><stop stop-color="#EFEFEF" offset="100%"/></linearGradient><path d="M70.944 0C32.092 0 .556 31.432.556 70.149c0 16.162 5.907 30.62 14.596 42.76l55.792 77.95 55.784-77.954c8.7-12.142 14.589-26.65 14.589-42.756C141.317 31.432 109.817 0 70.944 0" id="c"/><filter x="-15.6%" y="-10.5%" width="131.3%" height="123.1%" filterUnits="objectBoundingBox" id="b"><feOffset dy="2" in="SourceAlpha" result="shadowOffsetOuter1"/><feGaussianBlur stdDeviation="7" in="shadowOffsetOuter1" result="shadowBlurOuter1"/><feColorMatrix values="0 0 0 0 0 0 0 0 0 0 0 0 0 0 0 0 0 0 0.2 0" in="shadowBlurOuter1"/></filter></defs><g fill="none" fill-rule="evenodd"><path fill="url(#a)" d="M0 157.994L131.498 224 263 157.994 131.498 92z" transform="translate(0 12)"/><path fill="#3F4A5A" d="M152.472 192.896l20.945 10.447-41.917 20.885-41.915-20.884 20.94-10.446-11.78-5.883L66 203.345 131.5 236l65.5-32.657L164.257 187z"/><g transform="translate(61 12)"><use fill="#000" filter="url(#b)" xlink:href="#c"/><use fill="#F38181" xlink:href="#c"/></g><path d="M175.492 82.149c0 24.007-19.49 43.436-43.548 43.436-24.04 0-43.56-19.429-43.56-43.436 0-23.954 19.52-43.41 43.56-43.41 24.057 0 43.548 19.456 43.548 43.41" fill="#FFF"/></g></svg>